<svg id="Layer_1" data-name="Layer 1" xmlns="http://www.w3.org/2000/svg" viewBox="0 0 40 40"><path d="M13.41,0H26.59c.13,0,.25.05.38.06,1.27.12,2.57.12,3.82.35a10.25,10.25,0,0,1,8.66,8.08,24.53,24.53,0,0,1,.53,6c0,3.93,0,7.86,0,11.79a26.76,26.76,0,0,1-.37,4.57,10.22,10.22,0,0,1-8.06,8.64,24.7,24.7,0,0,1-5.94.52c-4.17,0-8.33,0-12.5,0a19.32,19.32,0,0,1-4.67-.5,10.19,10.19,0,0,1-7.21-6A15.15,15.15,0,0,1,.09,27.85C.07,27.43,0,27,0,26.6V13.42A2.5,2.5,0,0,0,.06,13a21.6,21.6,0,0,1,.5-4.6A10.22,10.22,0,0,1,6.64,1.15,15.35,15.35,0,0,1,12.17.09ZM20,36.44v-.06c1.68,0,3.36,0,5,0s3.15-.1,4.71-.26a7,7,0,0,0,4.06-1.72,7.33,7.33,0,0,0,2.41-5.31c.14-2.34.18-4.7.2-7s0-4.68,0-7c0-1.58-.1-3.15-.26-4.71a7.09,7.09,0,0,0-1.69-4,7.31,7.31,0,0,0-5.34-2.43c-2.34-.14-4.7-.18-7-.21s-4.68,0-7,0c-1.57,0-3.15.1-4.71.26a7.09,7.09,0,0,0-4,1.69,7.3,7.3,0,0,0-2.43,5.33c-.15,2.35-.18,4.71-.21,7.06s0,4.68,0,7A40.6,40.6,0,0,0,4,30.19a6.52,6.52,0,0,0,5,5.66,13.53,13.53,0,0,0,2.9.42C14.6,36.37,17.28,36.39,20,36.44Z"/><path d="M30.28,20A10.28,10.28,0,1,1,20,9.73,10.27,10.27,0,0,1,30.28,20ZM20,13.35A6.66,6.66,0,1,0,26.66,20,6.66,6.66,0,0,0,20,13.35Z"/><path d="M33.09,9.34a2.42,2.42,0,1,1-2.41-2.42A2.41,2.41,0,0,1,33.09,9.34Z"/></svg>